<svg id="visual" viewBox="0 0 900 300" width="900" height="300" xmlns="http://www.w3.org/2000/svg" xmlns:xlink="http://www.w3.org/1999/xlink" version="1.1"><path d="M0 146L25 139.3C50 132.7 100 119.3 150 108.8C200 98.3 250 90.7 300 99.7C350 108.7 400 134.3 450 150C500 165.7 550 171.3 600 172.8C650 174.3 700 171.7 750 167.7C800 163.7 850 158.3 875 155.7L900 153L900 301L875 301C850 301 800 301 750 301C700 301 650 301 600 301C550 301 500 301 450 301C400 301 350 301 300 301C250 301 200 301 150 301C100 301 50 301 25 301L0 301Z" fill="#ffc288"></path><path d="M0 145L25 142.8C50 140.7 100 136.3 150 137C200 137.7 250 143.3 300 156.2C350 169 400 189 450 197.8C500 206.7 550 204.3 600 202.2C650 200 700 198 750 198.3C800 198.7 850 201.3 875 202.7L900 204L900 301L875 301C850 301 800 301 750 301C700 301 650 301 600 301C550 301 500 301 450 301C400 301 350 301 300 301C250 301 200 301 150 301C100 301 50 301 25 301L0 301Z" fill="#fea35b"></path><path d="M0 240L25 231.8C50 223.7 100 207.3 150 204.7C200 202 250 213 300 215.2C350 217.3 400 210.7 450 204.3C500 198 550 192 600 194.7C650 197.3 700 208.7 750 209.2C800 209.7 850 199.3 875 194.2L900 189L900 301L875 301C850 301 800 301 750 301C700 301 650 301 600 301C550 301 500 301 450 301C400 301 350 301 300 301C250 301 200 301 150 301C100 301 50 301 25 301L0 301Z" fill="#fd8032"></path><path d="M0 266L25 266.7C50 267.3 100 268.7 150 262.8C200 257 250 244 300 238.8C350 233.7 400 236.3 450 236.7C500 237 550 235 600 237.7C650 240.3 700 247.7 750 253.5C800 259.3 850 263.7 875 265.8L900 268L900 301L875 301C850 301 800 301 750 301C700 301 650 301 600 301C550 301 500 301 450 301C400 301 350 301 300 301C250 301 200 301 150 301C100 301 50 301 25 301L0 301Z" fill="#fc5404"></path></svg>