<svg id="visual" viewBox="0 0 900 300" width="900" height="300" xmlns="http://www.w3.org/2000/svg" xmlns:xlink="http://www.w3.org/1999/xlink" version="1.1"><path d="M0 101L25 108.7C50 116.3 100 131.7 150 137.7C200 143.7 250 140.3 300 136.3C350 132.3 400 127.7 450 125.7C500 123.7 550 124.3 600 120.3C650 116.3 700 107.7 750 112.2C800 116.7 850 134.3 875 143.2L900 152L900 301L875 301C850 301 800 301 750 301C700 301 650 301 600 301C550 301 500 301 450 301C400 301 350 301 300 301C250 301 200 301 150 301C100 301 50 301 25 301L0 301Z" fill="#ffc288"></path><path d="M0 190L25 188C50 186 100 182 150 177C200 172 250 166 300 171C350 176 400 192 450 187.3C500 182.7 550 157.3 600 148.5C650 139.7 700 147.3 750 158.3C800 169.3 850 183.7 875 190.8L900 198L900 301L875 301C850 301 800 301 750 301C700 301 650 301 600 301C550 301 500 301 450 301C400 301 350 301 300 301C250 301 200 301 150 301C100 301 50 301 25 301L0 301Z" fill="#fea35b"></path><path d="M0 232L25 230.3C50 228.7 100 225.3 150 220C200 214.7 250 207.3 300 205C350 202.7 400 205.3 450 202C500 198.7 550 189.3 600 190.7C650 192 700 204 750 206.2C800 208.3 850 200.7 875 196.8L900 193L900 301L875 301C850 301 800 301 750 301C700 301 650 301 600 301C550 301 500 301 450 301C400 301 350 301 300 301C250 301 200 301 150 301C100 301 50 301 25 301L0 301Z" fill="#fd8032"></path><path d="M0 240L25 238.3C50 236.7 100 233.3 150 237.5C200 241.7 250 253.3 300 252.8C350 252.3 400 239.7 450 232.7C500 225.7 550 224.3 600 226C650 227.7 700 232.3 750 237.7C800 243 850 249 875 252L900 255L900 301L875 301C850 301 800 301 750 301C700 301 650 301 600 301C550 301 500 301 450 301C400 301 350 301 300 301C250 301 200 301 150 301C100 301 50 301 25 301L0 301Z" fill="#fc5404"></path></svg>